# xmcd
#
# Track frame offsets:
#	150
#	10614
#	21194
#	38939
#	55949
#	66686
#	75151
#	81076
#	94877
#	106238
#	116452
#	127026
#	136868
#	144319
#	156773
#	179826
#	198952
#	209647
#	227538
#	240704
#	254226
#	276525
#	289600
#
# Disc length: 3997 seconds
#
# Revision: 0
# Processed by: cddbd v1.5.2PL0 Copyright (c) Steve Scherf et al.
# Submitted via: EasyCDDAExtractor 11.5.0.1
#
DISCID=510f9b17
DTITLE=The Tobasco Donkeys - The Yarn Sessions
DYEAR=1900
DGENRE=
TTITLE0=Pig In A Pen
TTITLE1=Salty Dog
TTITLE2=The Mountain
TTITLE3=Tooth of Time (been chewin' on me)
TTITLE4=Sixteen Tons
TTITLE5=Monkey and The Engineer
TTITLE6=Ol' Slewfoot
TTITLE7=Gold Minin' Man
TTITLE8=Orange Blossom Speical
TTITLE9=Don't Pet the Dog
TTITLE10=The Fly that Road to City
TTITLE11=Ice Cream Man
TTITLE12=The 5th of July
TTITLE13=Am I Born to Die?
TTITLE14=New Mexico Rain
TTITLE15=Poor Wayfaring Stranger
TTITLE16=How Mountain Girls Can Love
TTITLE17=The Ballad of Wagon Wheel
TTITLE18=The Hills That I Call Home
TTITLE19=Great High Mountain
TTITLE20=August Day
TTITLE21=I've Been Everywhere
TTITLE22=Comin' On Strong (at Philmont)
EXTD=
EXTT0=
EXTT1=
EXTT2=
EXTT3=
EXTT4=
EXTT5=
EXTT6=
EXTT7=
EXTT8=
EXTT9=
EXTT10=
EXTT11=
EXTT12=
EXTT13=
EXTT14=
EXTT15=
EXTT16=
EXTT17=
EXTT18=
EXTT19=
EXTT20=
EXTT21=
EXTT22=
PLAYORDER=
